<?xml version="1.0" encoding="UTF-8" standalone="no"?>
<!-- Created with Inkscape (http://www.inkscape.org/) -->

<svg
   width="300.00003mm"
   height="299.99969mm"
   viewBox="0 0 300.00003 299.99969"
   version="1.1"
   id="svg1"
   inkscape:version="1.4.2 (ebf0e940, 2025-05-08)"
   sodipodi:docname="ICOS Intro icons.svg"
   xmlns:inkscape="http://www.inkscape.org/namespaces/inkscape"
   xmlns:sodipodi="http://sodipodi.sourceforge.net/DTD/sodipodi-0.dtd"
   xmlns="http://www.w3.org/2000/svg"
   xmlns:svg="http://www.w3.org/2000/svg">
  <sodipodi:namedview
     id="namedview1"
     pagecolor="#505050"
     bordercolor="#eeeeee"
     borderopacity="1"
     inkscape:showpageshadow="0"
     inkscape:pageopacity="0"
     inkscape:pagecheckerboard="0"
     inkscape:deskcolor="#505050"
     inkscape:document-units="mm"
     inkscape:zoom="0.082759531"
     inkscape:cx="-5957.0178"
     inkscape:cy="-5703.2706"
     inkscape:window-width="1472"
     inkscape:window-height="895"
     inkscape:window-x="0"
     inkscape:window-y="61"
     inkscape:window-maximized="0"
     inkscape:current-layer="svg1">
    <inkscape:page
       x="0"
       y="1.5136066e-11"
       width="300.00003"
       height="299.99966"
       id="page2"
       margin="0"
       bleed="0" />
  </sodipodi:namedview>
  <defs
     id="defs1" />
  <path
     id="path1-3-1"
     style="fill:#ffffff;stroke-width:1.99999;stroke-linecap:round;stroke-linejoin:round"
     d="m 156.90139,1.3162446e-4 c -4.3926,0 -8.785,1.67540007554 -12.1364,5.02680007554 -6.7029,6.7028993 -6.7029,17.5708993 0,24.2737993 6.7029,6.7028 17.57,6.7028 24.2729,0 6.7029,-6.7029 6.7029,-17.5709 0,-24.2737993 -3.3514,-3.3514 -7.7438,-5.02680007554 -12.1365,-5.02680007554 z M 101.76029,9.1408317 c -5.615802,0.1534 -10.538802,4.2304993 -11.552302,9.9785993 -1.1584,6.5693 3.2279,12.8336 9.797202,13.992 6.5693,1.1583 12.8345,-3.2279 13.9929,-9.7972 1.1583,-6.5693 -3.2288,-12.8337 -9.7981,-13.9919993 -0.8212,-0.1449 -1.6375,-0.2033 -2.4397,-0.1814 z m 105.2223,3.8498993 c -2.326,0.039 -4.6663,0.7486 -6.7154,2.1834 -5.4643,3.8261 -6.7921,11.3575 -2.966,16.8217 3.8261,5.4643 11.3575,6.7922 16.8218,2.966 5.4642,-3.8261 6.7921,-11.3575 2.966,-16.8217 -2.3914,-3.4152 -6.2296,-5.2142 -10.1064,-5.1494 z m -146.031702,21.0361 c -9.4793,0 -17.1641,7.6848 -17.1641,17.1641 0,9.4793 7.6848,17.1641 17.1641,17.1641 9.4793,0 17.1632,-7.6848 17.1632,-17.1641 0,-9.4793 -7.6839,-17.1641 -17.1632,-17.1641 z m 187.858702,9.7598 c -9.4793,0 -17.164,7.6848 -17.1641,17.1641 0,9.4793 7.6848,17.164 17.1641,17.164 9.4793,0 17.1632,-7.6847 17.1633,-17.164 0,-9.4794 -7.684,-17.1641 -17.1633,-17.1641 z m -124.3424,0.9699 c -0.5799,-0.01 -1.1658,0.014 -1.7559,0.065 -9.4433,0.8262 -16.4294,9.1515 -15.6032,18.5947 0.8261,9.4433 9.1514,16.4285 18.5947,15.6023 9.4432,-0.8261 16.4285,-9.1506 15.6023,-18.5938 -0.7746,-8.8531 -8.1393,-15.5466 -16.8379,-15.6679 z m 69.7258,7.5593 c -4.9457,-0.04 -9.8705,2.0466 -13.298,6.1313 -6.0932,7.2615 -5.1454,18.0877 2.1162,24.1809 7.2616,6.0932 18.0869,5.1454 24.1801,-2.1161 6.0931,-7.2616 5.1463,-18.0878 -2.1153,-24.181 -3.177,-2.6657 -7.0363,-3.9837 -10.883,-4.0151 z m -169.337302,28.4115 c -2.326,0.039 -4.6663,0.7486 -6.7154,2.1834 -5.4642,3.8261 -6.7921,11.3575 -2.966,16.8218 3.8261,5.464199 11.3575,6.792899 16.8218,2.966799 5.4643,-3.826099 6.7921,-11.357499 2.966,-16.821699 -2.3913,-3.4152 -6.2296,-5.2151 -10.1064,-5.1503 z m 117.673102,3.752 c -6.9616,0.1902 -13.0643,5.2442 -14.3207,12.3698 -1.436,8.143599 4.0014,15.909499 12.1449,17.345499 8.1436,1.4359 15.9096,-4.0015 17.3455,-12.145 1.4359,-8.143599 -4.0023,-15.909599 -12.1458,-17.345499 -1.018,-0.1795 -2.0294,-0.252 -3.0239,-0.2248 z m -72.899702,4.314 c -4.9457,-0.04 -9.8705,2.0458 -13.2979,6.1304 -6.0932,7.261599 -5.1455,18.087799 2.1161,24.180999 7.2615,6.0931 18.0877,5.1462 24.1809,-2.1153 6.0932,-7.2616 5.1455,-18.087799 -2.1161,-24.180999 -3.1769,-2.6657 -7.0363,-3.9837 -10.883,-4.0151 z m 208.811502,1.2339 c -5.6158,0.1534 -10.5388,4.2305 -11.5523,9.978599 -1.1584,6.5693 3.2279,12.8337 9.7972,13.992 6.5693,1.1584 12.8337,-3.2279 13.992,-9.7972 1.1584,-6.569299 -3.2279,-12.834499 -9.7972,-13.992799 -0.8212,-0.1449 -1.6375,-0.2025 -2.4397,-0.1806 z m -88.8929,13.634399 c -1.4712,0.07 -2.9566,0.3596 -4.4136,0.8899 -7.7705,2.8282 -11.7773,11.4203 -8.9491,19.1908 2.8283,7.7704 11.4203,11.7772 19.1908,8.949 7.7705,-2.8282 11.7765,-11.4203 8.9483,-19.1908 -2.298,-6.3135 -8.4006,-10.1421 -14.7764,-9.8389 z m 48.792,3.3824 c -0.5799,-0.01 -1.1657,0.012 -1.7559,0.064 -9.4433,0.8262 -16.4285,9.1515 -15.6023,18.5947 0.8261,9.4432 9.1514,16.4285 18.5947,15.6023 9.4432,-0.8262 16.4284,-9.1506 15.6023,-18.5938 -0.7746,-8.8531 -8.1402,-15.5458 -16.8388,-15.6671 z m -135.5107,8.8111 c -4.314402,-0.035 -8.611002,1.7855 -11.600802,5.3486 -5.3154,6.3346 -4.4884,15.7788 1.8461,21.0941 6.3346,5.3153 15.778702,4.4884 21.094102,-1.8462 5.3153,-6.3346 4.4884,-15.7778 -1.8462,-21.0932 -2.7714,-2.3254 -6.1376,-3.4759 -9.4932,-3.5033 z m -85.664602,10.0799 c -4.3926,0 -8.7858,1.6753 -12.1373,5.0268 -6.7029,6.7029 -6.7029,17.5709 0,24.2738 6.7029,6.7028 17.5709,6.7028 24.2738,0 6.7029,-6.7029 6.7029,-17.5709 0,-24.2738 -3.3515,-3.3514 -7.7439,-5.0268 -12.1365,-5.0268 z m 132.836002,7.5866 a 16.478724,16.478724 0 0 0 -16.4794,16.4786 16.478724,16.478724 0 0 0 16.4794,16.4785 16.478724,16.478724 0 0 0 16.4786,-16.4785 16.478724,16.478724 0 0 0 -16.4786,-16.4786 z m 132.8359,6.2155 c -4.3926,0 -8.785,1.6762 -12.1364,5.0277 -6.7029,6.7028 -6.7029,17.57 0,24.2729 6.7029,6.7028 17.57,6.7028 24.2729,0 6.7029,-6.7029 6.7029,-17.57 0,-24.2729 -3.3515,-3.3515 -7.7439,-5.0277 -12.1365,-5.0277 z m -85.4039,14.463 c -4.3144,-0.035 -8.6101,1.7846 -11.6,5.3478 -5.3153,6.3345 -4.4892,15.7787 1.8453,21.094 6.3346,5.3153 15.7787,4.4892 21.0941,-1.8453 5.3153,-6.3346 4.4892,-15.7787 -1.8454,-21.0941 -2.7713,-2.3254 -6.1384,-3.475 -9.494,-3.5024 z m -135.251902,4.4298 c -0.5799,-0.01 -1.1657,0.014 -1.7559,0.065 -9.4432,0.8262 -16.4293,9.1514 -15.6032,18.5947 0.8262,9.4432 9.1515,16.4285 18.5948,15.6023 9.4432,-0.8262 16.4284,-9.1515 15.6023,-18.5947 -0.7746,-8.853 -8.1393,-15.5457 -16.838,-15.667 z m 46.858102,7.7884 c -1.4714,0.07 -2.9567,0.3604 -4.4137,0.8907 -7.770502,2.8282 -11.777302,11.4203 -8.949002,19.1908 2.8282,7.7705 11.420302,11.7764 19.190702,8.9482 7.7705,-2.8282 11.7765,-11.4203 8.9483,-19.1908 -2.298,-6.3135 -8.4006,-10.1421 -14.7763,-9.8389 z m 121.6319,10.4614 c -4.9457,-0.04 -9.8706,2.0466 -13.298,6.1313 -6.0931,7.2615 -5.1463,18.0877 2.1153,24.1809 7.2616,6.0932 18.0878,5.1455 24.181,-2.1161 6.0931,-7.2616 5.1463,-18.0878 -2.1153,-24.181 -3.1769,-2.6658 -7.0363,-3.9837 -10.883,-4.0151 z m -74.0475,8.7013 c -6.9616,0.1901 -13.0643,5.2441 -14.3207,12.3697 -1.436,8.1436 4.0014,15.9096 12.1449,17.3455 8.1436,1.4359 15.9096,-4.0023 17.3455,-12.1458 1.4359,-8.1436 -4.0014,-15.9087 -12.145,-17.3446 -1.0179,-0.1795 -2.0302,-0.252 -3.0247,-0.2248 z m -135.748302,0.2401 c -5.6158,0.1534 -10.5388,4.2305 -11.5523,9.9786 -1.1583,6.5693 3.2279,12.8337 9.7972,13.992 6.5693,1.1583 12.8337,-3.2279 13.992,-9.7972 1.1584,-6.5693 -3.2279,-12.8337 -9.7972,-13.992 -0.8211,-0.1449 -1.6375,-0.2033 -2.4397,-0.1814 z m 253.844602,9.2965 c -2.3261,0.039 -4.6664,0.7486 -6.7155,2.1834 -5.4643,3.8261 -6.7921,11.3575 -2.9659,16.8218 3.826,5.4642 11.3574,6.7921 16.8217,2.9659 5.4643,-3.8261 6.7921,-11.3575 2.966,-16.8217 -2.3913,-3.4152 -6.2296,-5.2142 -10.1063,-5.1494 z m -168.6127,18.2396 c -4.9457,-0.04 -9.870502,2.0457 -13.298002,6.1304 -6.0931,7.2616 -5.1462,18.0878 2.1153,24.1809 7.261602,6.0932 18.087802,5.1463 24.181002,-2.1152 6.0932,-7.2616 5.1463,-18.0878 -2.1153,-24.181 -3.1769,-2.6658 -7.0363,-3.9837 -10.883,-4.0151 z m 69.9465,7.5593 c -0.5799,-0.01 -1.1658,0.014 -1.7559,0.065 -9.4433,0.8262 -16.4285,9.1515 -15.6024,18.5947 0.8262,9.4432 9.1515,16.4285 18.5947,15.6023 9.4433,-0.8262 16.4285,-9.1506 15.6023,-18.5938 -0.7745,-8.8531 -8.1401,-15.5466 -16.8387,-15.6679 z m -124.862002,0.9691 c -9.4793,0 -17.164,7.6848 -17.164,17.1641 0,9.4793 7.6847,17.1632 17.164,17.1632 9.4793,0 17.1641,-7.6839 17.1641,-17.1632 0,-9.4794 -7.6848,-17.1641 -17.1641,-17.1641 z m 187.858802,9.7597 c -9.4793,0 -17.1641,7.6848 -17.1641,17.1641 0,9.4793 7.6848,17.1632 17.1641,17.1632 9.4793,0 17.1632,-7.6839 17.1632,-17.1632 0,-9.4793 -7.6839,-17.1641 -17.1632,-17.1641 z m -146.457502,31.2089 c -2.3261,0.039 -4.6664,0.7486 -6.7155,2.1834 -5.4642,3.8261 -6.7921,11.3575 -2.966,16.8218 3.8262,5.4642 11.3575,6.7921 16.8218,2.966 5.464302,-3.8262 6.792102,-11.3575 2.966002,-16.8218 -2.3913,-3.4151 -6.229602,-5.2142 -10.106302,-5.1494 z m 50.506902,2.8178 c -4.3926,0 -8.7858,1.6762 -12.1373,5.0277 -6.7029,6.7028 -6.7029,17.57 0,24.2729 6.7029,6.7029 17.5709,6.7029 24.2738,0 6.7029,-6.7029 6.7029,-17.5701 0,-24.2729 -3.3515,-3.3515 -7.7439,-5.0277 -12.1365,-5.0277 z m 54.4557,1.0356 c -5.6158,0.1534 -10.5387,4.2296 -11.5523,9.9777 -1.1583,6.5693 3.2279,12.8345 9.7972,13.9928 6.5693,1.1584 12.8337,-3.2287 13.992,-9.798 1.1584,-6.5693 -3.2279,-12.8337 -9.7972,-13.992 -0.8212,-0.1449 -1.6374,-0.2025 -2.4397,-0.1805 z"
     inkscape:label="Patterning" />
</svg>
