<?xml version="1.0" encoding="UTF-8" standalone="no"?>
<svg
   width="20"
   height="20"
   viewBox="0 0 20 20"
   fill="none"
   version="1.1"
   id="svg3"
   sodipodi:docname="continuity.svg"
   inkscape:version="1.4.2 (ebf0e940, 2025-05-08)"
   xmlns:inkscape="http://www.inkscape.org/namespaces/inkscape"
   xmlns:sodipodi="http://sodipodi.sourceforge.net/DTD/sodipodi-0.dtd"
   xmlns="http://www.w3.org/2000/svg"
   xmlns:svg="http://www.w3.org/2000/svg">
  <defs
     id="defs3" />
  <sodipodi:namedview
     id="namedview3"
     pagecolor="#505050"
     bordercolor="#eeeeee"
     borderopacity="1"
     inkscape:showpageshadow="0"
     inkscape:pageopacity="0"
     inkscape:pagecheckerboard="0"
     inkscape:deskcolor="#505050"
     inkscape:zoom="10.792685"
     inkscape:cx="2.8723158"
     inkscape:cy="8.3389815"
     inkscape:window-width="1472"
     inkscape:window-height="923"
     inkscape:window-x="0"
     inkscape:window-y="33"
     inkscape:window-maximized="0"
     inkscape:current-layer="svg3" />
  <path
     style="baseline-shift:baseline;display:inline;overflow:visible;opacity:1;vector-effect:none;fill:#000000;stroke-linecap:round;stroke-linejoin:round;enable-background:accumulate;stop-color:#000000;stop-opacity:1"
     d="m 5.5236201,5.6533202 c -1.467641,0 -2.717307,0.392436 -3.603515,1.179687 -0.886209,0.787252 -1.36914099,1.956136 -1.36914099,3.3496098 0,1.329283 0.73237599,2.402278 1.69726599,3.09961 0.964889,0.697331 2.167096,1.064453 3.27539,1.064453 0.783324,0 1.346247,-0.08833 1.8125,-0.353516 0.466253,-0.265182 0.76379,-0.665238 1.089844,-1.15039 a 0.5,0.5 0 0 0 -0.136719,-0.695313 0.5,0.5 0 0 0 -0.693359,0.136718 c -0.307665,0.457791 -0.507298,0.699586 -0.753906,0.839845 -0.246609,0.140258 -0.610928,0.222656 -1.31836,0.222656 -0.879419,0 -1.915108,-0.315377 -2.689453,-0.875 -0.774344,-0.559624 -1.283203,-1.320152 -1.283203,-2.289063 0,-1.1706298 0.372783,-2.0168398 1.033203,-2.6035158 0.66042,-0.586675 1.648961,-0.925781 2.939453,-0.925781 0.992175,-1.3e-5 1.644551,0.386717 2.244141,1.039062 0.59959,0.652346 1.099144,1.582068 1.625,2.5468748 0.525856,0.964808 1.0793779,1.967625 1.8652339,2.757813 0.785856,0.790188 1.839612,1.34961 3.210938,1.34961 1.638154,0 2.8671,-0.472965 3.689453,-1.248047 0.822353,-0.775083 1.213491,-1.824526 1.28125,-2.884766 0.07262,-1.1359748 -0.273562,-2.2906988 -1.107422,-3.1542968 -0.83386,-0.863598 -2.134258,-1.40625 -3.863281,-1.40625 -1.024448,0 -1.692039,0.08574 -2.226563,0.347656 -0.534523,0.261912 -0.855199,0.684537 -1.167968,1.158203 a 0.5,0.5 0 0 0 0.140625,0.69336 0.5,0.5 0 0 0 0.693359,-0.142578 c 0.292902,-0.443579 0.468018,-0.660894 0.773438,-0.810547 0.305419,-0.149653 0.823786,-0.246094 1.787109,-0.246094 1.524221,0 2.523109,0.456026 3.144531,1.099609 0.621422,0.643584 0.885345,1.503324 0.828125,2.3984378 -0.0551,0.862092 -0.357792,1.644865 -0.96875,2.220703 -0.610957,0.575839 -1.553622,0.97461 -3.003906,0.97461 -1.113307,0 -1.853286,-0.402445 -2.501953,-1.054688 C 11.318313,11.639749 10.794046,10.71917 10.271667,9.7607422 9.7492891,8.8023142 9.2302661,7.8066722 8.5040891,7.0166012 7.7779121,6.2265312 6.7985681,5.6533032 5.5236201,5.6533202 Z"
     id="path1-5-3" />
</svg>
