<?xml version="1.0" encoding="UTF-8" standalone="no"?>
<svg
   width="24"
   height="24"
   viewBox="0 0 24 24"
   fill="none"
   version="1.1"
   id="svg1"
   sodipodi:docname="voice.svg"
   xml:space="preserve"
   inkscape:version="1.4.2 (ebf0e940, 2025-05-08)"
   xmlns:inkscape="http://www.inkscape.org/namespaces/inkscape"
   xmlns:sodipodi="http://sodipodi.sourceforge.net/DTD/sodipodi-0.dtd"
   xmlns="http://www.w3.org/2000/svg"
   xmlns:svg="http://www.w3.org/2000/svg"><defs
     id="defs1"><inkscape:path-effect
       effect="fillet_chamfer"
       id="path-effect2"
       is_visible="true"
       lpeversion="1"
       nodesatellites_param="F,0,0,1,0,2,0,1 @ F,0,0,1,0,2,0,1 @ F,0,0,1,0,1,0,1 @ F,0,0,1,0,0,0,1 @ F,0,0,1,0,1,0,1"
       radius="0"
       unit="px"
       method="auto"
       mode="F"
       chamfer_steps="1"
       flexible="false"
       use_knot_distance="true"
       apply_no_radius="true"
       apply_with_radius="true"
       only_selected="false"
       hide_knots="false" /><inkscape:path-effect
       effect="fillet_chamfer"
       id="path-effect1"
       is_visible="true"
       lpeversion="1"
       nodesatellites_param="F,0,0,1,0,1,0,1 @ F,0,0,1,0,0,0,1 @ F,0,0,1,0,1,0,1 @ F,0,0,1,0,4,0,1 @ F,0,0,1,0,0,0,1 @ F,0,0,1,0,4,0,1"
       radius="0"
       unit="px"
       method="auto"
       mode="F"
       chamfer_steps="1"
       flexible="false"
       use_knot_distance="true"
       apply_no_radius="true"
       apply_with_radius="true"
       only_selected="false"
       hide_knots="false" /><inkscape:path-effect
       effect="fillet_chamfer"
       id="path-effect1-4"
       is_visible="true"
       lpeversion="1"
       nodesatellites_param="F,0,0,1,0,1,0,1 @ F,0,0,1,0,0,0,1 @ F,0,0,1,0,1,0,1 @ F,0,0,1,0,4,0,1 @ F,0,0,1,0,0,0,1 @ F,0,0,1,0,4,0,1"
       radius="0"
       unit="px"
       method="auto"
       mode="F"
       chamfer_steps="1"
       flexible="false"
       use_knot_distance="true"
       apply_no_radius="true"
       apply_with_radius="true"
       only_selected="false"
       hide_knots="false" /></defs><sodipodi:namedview
     id="namedview1"
     pagecolor="#505050"
     bordercolor="#eeeeee"
     borderopacity="1"
     inkscape:showpageshadow="0"
     inkscape:pageopacity="0"
     inkscape:pagecheckerboard="0"
     inkscape:deskcolor="#505050"
     inkscape:zoom="3.6654636"
     inkscape:cx="13.913656"
     inkscape:cy="7.9116868"
     inkscape:window-width="1472"
     inkscape:window-height="839"
     inkscape:window-x="0"
     inkscape:window-y="32"
     inkscape:window-maximized="0"
     inkscape:current-layer="svg1" /><path
     id="rect1-9"
     style="fill:none;stroke:#000000;stroke-width:1;stroke-linecap:round;stroke-linejoin:round;stroke-miterlimit:83.9;paint-order:markers fill stroke"
     d="m 13.846179,4.9417321 c -0.110389,-0.00406 -0.22015,0.023844 -0.322116,0.081863 C 10.702125,6.7104762 8.829796,8.4483221 6.060369,8.2796613 5.707042,8.2581423 5.127562,8.1977293 4.791647,8.3299653 2.6345426,9.179124 2.5728586,13.784729 4.11768,15.256863 c 0.604242,0.575809 1.927413,0.367643 2.701756,0.401593 2.151094,0.0943 4.032919,1.708289 6.127396,3.001014 0.316536,0.195367 0.889682,0.521602 1.196523,0.334705 0.268803,-0.163728 0.467161,-0.530088 0.46711,-0.982348 V 6.0147033 C 14.610321,5.4325817 14.271312,4.9566497 13.846179,4.9417321 Z"
     sodipodi:nodetypes="ccccccccccc" /><path
     id="path3-9"
     style="stroke:#000000;stroke-width:1;stroke-linecap:round;stroke-linejoin:round;stroke-miterlimit:83.9;paint-order:markers fill stroke"
     d="m 19.588062,7.9861442 c 0.420412,0.5136174 0.760637,1.1252058 0.995756,1.8043248 0.23512,0.679122 0.365135,1.425777 0.365135,2.209531 0,0.783754 -0.130016,1.530408 -0.365135,2.20953 -0.235119,0.679122 -0.575344,1.290708 -0.995756,1.804326"
     sodipodi:nodetypes="csssc" /><path
     id="path3-9-2"
     style="stroke:#000000;stroke-width:1;stroke-linecap:round;stroke-linejoin:round;stroke-miterlimit:83.9;paint-order:markers fill stroke"
     d="m 16.702499,8.826243 c 0.166997,0.301989 0.310833,0.624667 0.428393,0.964228 0.117561,0.33956 0.208843,0.696003 0.270738,1.065527 0.0619,0.369523 0.0944,0.752126 0.0944,1.144003 0,0.391877 -0.0325,0.774479 -0.0944,1.144002 -0.0619,0.369522 -0.153178,0.725966 -0.270738,1.065528 -0.11756,0.339561 -0.261395,0.662238 -0.428393,0.964226"
     sodipodi:nodetypes="csssssc" /></svg>
