<?xml version="1.0" encoding="UTF-8" standalone="no"?>
<svg
   width="24"
   height="24"
   viewBox="0 0 24 24"
   fill="none"
   version="1.1"
   id="svg1"
   sodipodi:docname="search.svg"
   inkscape:version="1.4.2 (ebf0e940, 2025-05-08)"
   xmlns:inkscape="http://www.inkscape.org/namespaces/inkscape"
   xmlns:sodipodi="http://sodipodi.sourceforge.net/DTD/sodipodi-0.dtd"
   xmlns="http://www.w3.org/2000/svg"
   xmlns:svg="http://www.w3.org/2000/svg">
  <defs
     id="defs1" />
  <sodipodi:namedview
     id="namedview1"
     pagecolor="#505050"
     bordercolor="#eeeeee"
     borderopacity="1"
     inkscape:showpageshadow="0"
     inkscape:pageopacity="0"
     inkscape:pagecheckerboard="0"
     inkscape:deskcolor="#505050"
     inkscape:zoom="1.0833333"
     inkscape:cx="12"
     inkscape:cy="12"
     inkscape:window-width="1472"
     inkscape:window-height="923"
     inkscape:window-x="0"
     inkscape:window-y="33"
     inkscape:window-maximized="0"
     inkscape:current-layer="svg1" />
  <path
     id="path3536-0-4-2"
     style="baseline-shift:baseline;display:inline;overflow:visible;vector-effect:none;fill:#000000;stroke-width:3.77953;stroke-linecap:round;stroke-linejoin:round;enable-background:accumulate;stop-color:#000000"
     d="m 11.300552,3.2864517 c -2.5032819,-0.01962 -4.9968039,1.033708 -6.7252769,3.093621 -3.072841,3.6620703 -2.592298,9.1546153 1.069744,12.2274333 3.380639,2.836693 8.3215049,2.645021 11.4782829,-0.282639 l 2.544095,2.137084 a 1.0848891,1.0848891 0 0 0 1.526075,-0.135643 1.0848891,1.0848891 0 0 0 -0.131194,-1.529411 l -2.545283,-2.13263 C 20.852886,13.047031 20.183765,8.1474977 16.802626,5.3103857 15.200483,3.9660287 13.247519,3.3017087 11.30054,3.2864667 Z m -0.02121,2.156274 c 1.456962,0.01255 2.919309,0.515897 4.12852,1.530546 2.763817,2.319119 3.121872,6.4058883 0.802787,9.1696663 -2.319086,2.763779 -6.4070969,3.121862 -9.1709149,0.802744 -2.763817,-2.319118 -3.121819,-6.406964 -0.802733,-9.1707433 1.304486,-1.554625 3.168988,-2.348446 5.0423409,-2.332213 z" />
</svg>
