<?xml version="1.0" encoding="UTF-8" standalone="no"?>
<svg
   width="20"
   height="20"
   viewBox="0 0 20 20"
   fill="none"
   version="1.1"
   id="svg1"
   sodipodi:docname="search.svg"
   inkscape:version="1.4.2 (ebf0e940, 2025-05-08)"
   xmlns:inkscape="http://www.inkscape.org/namespaces/inkscape"
   xmlns:sodipodi="http://sodipodi.sourceforge.net/DTD/sodipodi-0.dtd"
   xmlns="http://www.w3.org/2000/svg"
   xmlns:svg="http://www.w3.org/2000/svg">
  <defs
     id="defs1" />
  <sodipodi:namedview
     id="namedview1"
     pagecolor="#505050"
     bordercolor="#eeeeee"
     borderopacity="1"
     inkscape:showpageshadow="0"
     inkscape:pageopacity="0"
     inkscape:pagecheckerboard="0"
     inkscape:deskcolor="#505050"
     inkscape:zoom="4.7608417"
     inkscape:cx="21.63483"
     inkscape:cy="-3.9908909"
     inkscape:window-width="1472"
     inkscape:window-height="923"
     inkscape:window-x="0"
     inkscape:window-y="33"
     inkscape:window-maximized="0"
     inkscape:current-layer="svg1" />
  <path
     id="path3536-0-4-2"
     style="baseline-shift:baseline;display:inline;overflow:visible;vector-effect:none;fill:#000000;stroke-width:3.77953;stroke-linecap:round;stroke-linejoin:round;enable-background:accumulate;stop-color:#000000"
     d="M 9.3005524,1.2864519 C 6.7972704,1.2668349 4.3037477,2.3201601 2.5752753,4.3800732 -0.497566,8.0421425 -0.017023,13.534688 3.6450186,16.607506 7.0256584,19.444199 11.966524,19.252527 15.123302,16.324867 l 2.544095,2.137084 a 1.0848891,1.0848891 0 0 0 1.526075,-0.135643 1.0848891,1.0848891 0 0 0 -0.131194,-1.529411 l -2.545283,-2.13263 C 18.852886,11.047031 18.183765,6.1474985 14.802626,3.3103865 13.200483,1.9660289 11.247519,1.3017088 9.3005399,1.2864668 Z m -0.021206,2.1562737 c 1.4569616,0.012547 2.9193086,0.5158976 4.1285196,1.5305466 2.763817,2.3191183 3.121872,6.4058878 0.802787,9.1696658 C 11.891567,16.906717 7.8035556,17.2648 5.0397384,14.945682 2.2759211,12.626564 1.9179192,8.5387185 4.2370051,5.7749395 5.5414909,4.2203139 7.4059931,3.4264928 9.2793464,3.4427256 Z" />
</svg>
