<?xml version="1.0" encoding="UTF-8" standalone="no"?>
<svg
   width="20"
   height="20"
   viewBox="0 0 20 20"
   fill="none"
   version="1.1"
   id="svg2"
   sodipodi:docname="settings.svg"
   inkscape:version="1.4.2 (ebf0e940, 2025-05-08)"
   xmlns:inkscape="http://www.inkscape.org/namespaces/inkscape"
   xmlns:sodipodi="http://sodipodi.sourceforge.net/DTD/sodipodi-0.dtd"
   xmlns="http://www.w3.org/2000/svg"
   xmlns:svg="http://www.w3.org/2000/svg">
  <defs
     id="defs2" />
  <sodipodi:namedview
     id="namedview2"
     pagecolor="#505050"
     bordercolor="#eeeeee"
     borderopacity="1"
     inkscape:showpageshadow="0"
     inkscape:pageopacity="0"
     inkscape:pagecheckerboard="0"
     inkscape:deskcolor="#505050"
     inkscape:zoom="16.096066"
     inkscape:cx="10.59265"
     inkscape:cy="8.2007615"
     inkscape:window-width="1472"
     inkscape:window-height="923"
     inkscape:window-x="0"
     inkscape:window-y="33"
     inkscape:window-maximized="0"
     inkscape:current-layer="svg2" />
  <path
     id="rect3530-0-8-1"
     style="baseline-shift:baseline;display:inline;overflow:visible;vector-effect:none;fill:#000000;stroke-width:3.77953;stroke-linecap:square;stroke-linejoin:round;enable-background:accumulate;stop-color:#000000"
     d="M 8.6948026,0.5511811 A 0.75598865,0.75598865 0 0 0 7.9643256,1.1234073 L 7.5395216,2.8255346 C 6.6094466,3.1471753 5.7583266,3.6373851 5.0150936,4.2825569 L 3.3363616,3.7991505 a 0.75598865,0.75598865 0 0 0 -0.864273,0.34772 l -1.30274,2.2588571 a 0.75598865,0.75598865 0 0 0 0.128883,0.9227808 l 1.196308,1.1554128 c -0.101103,0.5019267 -0.199391,1.003853 -0.199221,1.5165508 -1.7e-4,0.511942 0.09846,1.015569 0.199221,1.51655 l -1.196308,1.155413 a 0.75598865,0.75598865 0 0 0 -0.128883,0.922782 l 1.30274,2.258857 a 0.75598865,0.75598865 0 0 0 0.864273,0.347531 l 1.678732,-0.484352 c 0.743157,0.64555 1.594278,1.136327 2.524428,1.458157 l 0.424804,1.702127 a 0.75598865,0.75598865 0 0 0 0.730477,0.571281 h 2.6064834 a 0.75598865,0.75598865 0 0 0 0.734369,-0.571281 l 0.424823,-1.698348 c 0.930605,-0.321641 1.780837,-0.812417 2.524429,-1.457967 l 1.678732,0.483406 a 0.75598865,0.75598865 0 0 0 0.864273,-0.350554 l 1.30274,-2.258857 a 0.75598865,0.75598865 0 0 0 -0.128883,-0.919002 l -1.196308,-1.159193 c 0.100914,-0.500792 0.199088,-1.004797 0.199221,-1.51655 -1.33e-4,-0.5125093 -0.09789,-1.0148131 -0.199221,-1.5165508 L 18.701769,7.3285084 A 0.75598865,0.75598865 0 0 0 18.830652,6.4057276 L 17.527912,4.1498941 A 0.75598865,0.75598865 0 0 0 16.663639,3.7991505 L 14.984907,4.2825569 C 14.241542,3.6370071 13.390913,3.1473643 12.460478,2.8255346 L 12.035655,1.1234073 A 0.75598865,0.75598865 0 0 0 11.305198,0.5511811 Z m 0.59084,1.513716 h 1.4287144 l 0.346681,1.3984389 a 0.75598865,0.75598865 0 0 0 0.539079,0.5506828 c 1.052722,0.2817665 2.013167,0.833961 2.783234,1.6055592 a 0.75598865,0.75598865 0 0 0 0.741211,0.1952146 l 1.387705,-0.3983662 0.712901,1.2362958 -1.037112,1.0040415 a 0.75598865,0.75598865 0 0 0 -0.207045,0.7381492 c 0.1406,0.5240369 0.213734,1.0631916 0.213867,1.6055591 -1.33e-4,0.542557 -0.07332,1.081711 -0.213867,1.605559 a 0.75598865,0.75598865 0 0 0 0.207045,0.742118 l 1.037112,1.003852 -0.712901,1.236485 -1.387705,-0.398555 a 0.75598865,0.75598865 0 0 0 -0.741211,0.191435 c -0.769954,0.771031 -1.730908,1.327572 -2.783234,1.609339 a 0.75598865,0.75598865 0 0 0 -0.539079,0.545958 l -0.346681,1.403352 H 9.2856426 l -0.34668,-1.403352 a 0.75598865,0.75598865 0 0 0 -0.53908,-0.545958 c -1.052438,-0.281956 -2.013393,-0.83793 -2.783233,-1.609339 a 0.75598865,0.75598865 0 0 0 -0.741211,-0.191435 l -1.388687,0.394586 -0.711919,-1.232516 1.037112,-1.003852 a 0.75598865,0.75598865 0 0 0 0.207045,-0.738338 c -0.140411,-0.524226 -0.214056,-1.066593 -0.213867,-1.609339 -1.89e-4,-0.5425565 0.07351,-1.0813332 0.213867,-1.6055591 A 0.75598865,0.75598865 0 0 0 3.8119446,7.6527951 L 2.7748326,6.6489426 3.4867516,5.4164264 4.8754386,5.8110131 A 0.75598865,0.75598865 0 0 0 5.6166496,5.619578 c 0.769954,-0.7712202 1.730908,-1.3239816 2.783233,-1.6055592 a 0.75598865,0.75598865 0 0 0 0.53908,-0.5469032 z m 0.7158124,4.3436652 c -1.9740664,0 -3.5908514,1.6178427 -3.5908514,3.5919097 0,1.974067 1.616785,3.590776 3.5908514,3.590776 1.974086,0 3.587942,-1.616709 3.587942,-3.590776 0,-1.974067 -1.613856,-3.5919097 -3.587942,-3.5919097 z m 0,1.5137161 c 1.15702,0 2.078156,0.9212691 2.078156,2.0781936 0,1.157114 -0.921136,2.078194 -2.078156,2.078194 -1.1570194,0 -2.0810664,-0.92108 -2.0810664,-2.078194 0,-1.1569245 0.924047,-2.0781936 2.0810664,-2.0781936 z" />
</svg>
